<svg id="visual" viewBox="0 0 900 600" width="900" height="600" xmlns="http://www.w3.org/2000/svg" xmlns:xlink="http://www.w3.org/1999/xlink" version="1.1"><rect x="0" y="0" width="900" height="600" fill="#065A82"></rect><path d="M0 188L21.5 196.5C43 205 86 222 128.8 229.8C171.7 237.7 214.3 236.3 257.2 223.3C300 210.3 343 185.7 385.8 178.3C428.7 171 471.3 181 514.2 192C557 203 600 215 642.8 213.2C685.7 211.3 728.3 195.7 771.2 190.7C814 185.7 857 191.3 878.5 194.2L900 197L900 0L878.5 0C857 0 814 0 771.2 0C728.3 0 685.7 0 642.8 0C600 0 557 0 514.2 0C471.3 0 428.7 0 385.8 0C343 0 300 0 257.2 0C214.3 0 171.7 0 128.8 0C86 0 43 0 21.5 0L0 0Z" fill="#006a9b"></path><path d="M0 171L21.5 162.3C43 153.7 86 136.3 128.8 140.3C171.7 144.3 214.3 169.7 257.2 181C300 192.3 343 189.7 385.8 179.8C428.7 170 471.3 153 514.2 145.3C557 137.7 600 139.3 642.8 137.2C685.7 135 728.3 129 771.2 139.2C814 149.3 857 175.7 878.5 188.8L900 202L900 0L878.5 0C857 0 814 0 771.2 0C728.3 0 685.7 0 642.8 0C600 0 557 0 514.2 0C471.3 0 428.7 0 385.8 0C343 0 300 0 257.2 0C214.3 0 171.7 0 128.8 0C86 0 43 0 21.5 0L0 0Z" fill="#4967b5"></path><path d="M0 115L21.5 119.5C43 124 86 133 128.8 132C171.7 131 214.3 120 257.2 116.7C300 113.3 343 117.7 385.8 120.8C428.7 124 471.3 126 514.2 130.7C557 135.3 600 142.7 642.8 142.5C685.7 142.3 728.3 134.7 771.2 132.3C814 130 857 133 878.5 134.5L900 136L900 0L878.5 0C857 0 814 0 771.2 0C728.3 0 685.7 0 642.8 0C600 0 557 0 514.2 0C471.3 0 428.7 0 385.8 0C343 0 300 0 257.2 0C214.3 0 171.7 0 128.8 0C86 0 43 0 21.5 0L0 0Z" fill="#9159b8"></path><path d="M0 57L21.5 62.7C43 68.3 86 79.7 128.8 81.5C171.7 83.3 214.3 75.7 257.2 72.7C300 69.7 343 71.3 385.8 78.2C428.7 85 471.3 97 514.2 100C557 103 600 97 642.8 98C685.7 99 728.3 107 771.2 106C814 105 857 95 878.5 90L900 85L900 0L878.5 0C857 0 814 0 771.2 0C728.3 0 685.7 0 642.8 0C600 0 557 0 514.2 0C471.3 0 428.7 0 385.8 0C343 0 300 0 257.2 0C214.3 0 171.7 0 128.8 0C86 0 43 0 21.5 0L0 0Z" fill="#cf3a9e"></path><path d="M0 38L21.5 42C43 46 86 54 128.8 57.7C171.7 61.3 214.3 60.7 257.2 59.3C300 58 343 56 385.8 54.7C428.7 53.3 471.3 52.7 514.2 50C557 47.3 600 42.7 642.8 46.3C685.7 50 728.3 62 771.2 66.3C814 70.7 857 67.3 878.5 65.7L900 64L900 0L878.5 0C857 0 814 0 771.2 0C728.3 0 685.7 0 642.8 0C600 0 557 0 514.2 0C471.3 0 428.7 0 385.8 0C343 0 300 0 257.2 0C214.3 0 171.7 0 128.8 0C86 0 43 0 21.5 0L0 0Z" fill="#f80d6b"></path></svg>