<svg id="visual" viewBox="0 0 960 300" width="960" height="300" xmlns="http://www.w3.org/2000/svg" xmlns:xlink="http://www.w3.org/1999/xlink" version="1.1"><rect x="0" y="0" width="960" height="300" fill="#0e0114"></rect><path d="M0 200L22.8 199.8C45.7 199.7 91.3 199.3 137 202.7C182.7 206 228.3 213 274 215.2C319.7 217.3 365.3 214.7 411.2 208.8C457 203 503 194 548.8 194.3C594.7 194.7 640.3 204.3 686 203.5C731.7 202.7 777.3 191.3 823 190.8C868.7 190.3 914.3 200.7 937.2 205.8L960 211L960 301L937.2 301C914.3 301 868.7 301 823 301C777.3 301 731.7 301 686 301C640.3 301 594.7 301 548.8 301C503 301 457 301 411.2 301C365.3 301 319.7 301 274 301C228.3 301 182.7 301 137 301C91.3 301 45.7 301 22.8 301L0 301Z" fill="#180c2b"></path><path d="M0 203L22.8 203C45.7 203 91.3 203 137 205C182.7 207 228.3 211 274 212.5C319.7 214 365.3 213 411.2 214.5C457 216 503 220 548.8 218.8C594.7 217.7 640.3 211.3 686 213.8C731.7 216.3 777.3 227.7 823 227.8C868.7 228 914.3 217 937.2 211.5L960 206L960 301L937.2 301C914.3 301 868.7 301 823 301C777.3 301 731.7 301 686 301C640.3 301 594.7 301 548.8 301C503 301 457 301 411.2 301C365.3 301 319.7 301 274 301C228.3 301 182.7 301 137 301C91.3 301 45.7 301 22.8 301L0 301Z" fill="#45184c"></path><path d="M0 224L22.8 226.3C45.7 228.7 91.3 233.3 137 233.2C182.7 233 228.3 228 274 229.8C319.7 231.7 365.3 240.3 411.2 242.8C457 245.3 503 241.7 548.8 242.3C594.7 243 640.3 248 686 250C731.7 252 777.3 251 823 248C868.7 245 914.3 240 937.2 237.5L960 235L960 301L937.2 301C914.3 301 868.7 301 823 301C777.3 301 731.7 301 686 301C640.3 301 594.7 301 548.8 301C503 301 457 301 411.2 301C365.3 301 319.7 301 274 301C228.3 301 182.7 301 137 301C91.3 301 45.7 301 22.8 301L0 301Z" fill="#7d1a64"></path><path d="M0 243L22.8 246.7C45.7 250.3 91.3 257.7 137 261.3C182.7 265 228.3 265 274 261.5C319.7 258 365.3 251 411.2 247.7C457 244.3 503 244.7 548.8 246.5C594.7 248.3 640.3 251.7 686 253.2C731.7 254.7 777.3 254.3 823 255.3C868.7 256.3 914.3 258.7 937.2 259.8L960 261L960 301L937.2 301C914.3 301 868.7 301 823 301C777.3 301 731.7 301 686 301C640.3 301 594.7 301 548.8 301C503 301 457 301 411.2 301C365.3 301 319.7 301 274 301C228.3 301 182.7 301 137 301C91.3 301 45.7 301 22.8 301L0 301Z" fill="#bb106f"></path><path d="M0 274L22.8 276C45.7 278 91.3 282 137 280.3C182.7 278.7 228.3 271.3 274 270.5C319.7 269.7 365.3 275.3 411.2 275C457 274.7 503 268.3 548.8 269C594.7 269.7 640.3 277.3 686 281.2C731.7 285 777.3 285 823 283.2C868.7 281.3 914.3 277.7 937.2 275.8L960 274L960 301L937.2 301C914.3 301 868.7 301 823 301C777.3 301 731.7 301 686 301C640.3 301 594.7 301 548.8 301C503 301 457 301 411.2 301C365.3 301 319.7 301 274 301C228.3 301 182.7 301 137 301C91.3 301 45.7 301 22.8 301L0 301Z" fill="#f80d6b"></path></svg>