<?xml version="1.0" encoding="UTF-8" standalone="no"?>
<!DOCTYPE svg PUBLIC "-//W3C//DTD SVG 1.1//EN" "http://www.w3.org/Graphics/SVG/1.1/DTD/svg11.dtd">
<svg width="100%" height="100%" viewBox="0 0 800 200" version="1.1" xmlns="http://www.w3.org/2000/svg" xmlns:xlink="http://www.w3.org/1999/xlink" xml:space="preserve" xmlns:serif="http://www.serif.com/" style="fill-rule:evenodd;clip-rule:evenodd;stroke-linejoin:round;stroke-miterlimit:2;">
    <g id="Base" transform="matrix(1,0,0,1,0,-200)">
        <g id="_5" serif:id="5" transform="matrix(1,0,0,1,598.46,-37.5481)">
            <path d="M160.077,314.73C160.077,302.137 149.853,291.913 137.259,291.913L91.624,291.913C79.03,291.913 68.806,302.137 68.806,314.73L68.806,360.366C68.806,372.959 79.03,383.184 91.624,383.184L137.259,383.184C149.853,383.184 160.077,372.959 160.077,360.366L160.077,314.73Z" style="fill:rgb(235,235,235);"/>
        </g>
        <g id="_4" serif:id="4" transform="matrix(1,0,0,1,442.105,-37.5481)">
            <path d="M160.077,314.73C160.077,302.137 149.853,291.913 137.259,291.913L91.624,291.913C79.03,291.913 68.806,302.137 68.806,314.73L68.806,360.366C68.806,372.959 79.03,383.184 91.624,383.184L137.259,383.184C149.853,383.184 160.077,372.959 160.077,360.366L160.077,314.73Z" style="fill:rgb(235,235,235);"/>
        </g>
        <g id="_3" serif:id="3" transform="matrix(1,0,0,1,285.366,-37.5481)">
            <path d="M160.077,314.73C160.077,302.137 149.853,291.913 137.259,291.913L91.624,291.913C79.03,291.913 68.806,302.137 68.806,314.73L68.806,360.366C68.806,372.959 79.03,383.184 91.624,383.184L137.259,383.184C149.853,383.184 160.077,372.959 160.077,360.366L160.077,314.73Z" style="fill:rgb(235,235,235);"/>
        </g>
        <g id="_2" serif:id="2" transform="matrix(1,0,0,1,129.012,-37.5481)">
            <path d="M160.077,314.73C160.077,302.137 149.853,291.913 137.259,291.913L91.624,291.913C79.03,291.913 68.806,302.137 68.806,314.73L68.806,360.366C68.806,372.959 79.03,383.184 91.624,383.184L137.259,383.184C149.853,383.184 160.077,372.959 160.077,360.366L160.077,314.73Z" style="fill:rgb(235,235,235);"/>
        </g>
        <g id="_1" serif:id="1" transform="matrix(1,0,0,1,-27.3427,-37.5481)">
            <path d="M160.077,314.73C160.077,302.137 149.853,291.913 137.259,291.913L91.624,291.913C79.03,291.913 68.806,302.137 68.806,314.73L68.806,360.366C68.806,372.959 79.03,383.184 91.624,383.184L137.259,383.184C149.853,383.184 160.077,372.959 160.077,360.366L160.077,314.73Z" style="fill:rgb(235,235,235);"/>
        </g>
    </g>
    <g id="Highlight" transform="matrix(1,0,0,1,0,-200)">
        <g id="_51" serif:id="5" transform="matrix(1.27848,0,0,1.27848,566.59,-131.549)">
            <path d="M160.077,314.73C160.077,302.137 149.853,291.913 137.259,291.913L91.624,291.913C79.03,291.913 68.806,302.137 68.806,314.73L68.806,360.366C68.806,372.959 79.03,383.184 91.624,383.184L137.259,383.184C149.853,383.184 160.077,372.959 160.077,360.366L160.077,314.73Z" style="fill:rgb(242,120,92);"/>
        </g>
        <g id="_41" serif:id="4" transform="matrix(1.27848,0,0,1.27848,410.235,-131.549)">
            <path d="M160.077,314.73C160.077,302.137 149.853,291.913 137.259,291.913L91.624,291.913C79.03,291.913 68.806,302.137 68.806,314.73L68.806,360.366C68.806,372.959 79.03,383.184 91.624,383.184L137.259,383.184C149.853,383.184 160.077,372.959 160.077,360.366L160.077,314.73Z" style="fill:rgb(242,157,92);"/>
        </g>
        <g id="_31" serif:id="3" transform="matrix(1.27848,0,0,1.27848,253.496,-131.549)">
            <path d="M160.077,314.73C160.077,302.137 149.853,291.913 137.259,291.913L91.624,291.913C79.03,291.913 68.806,302.137 68.806,314.73L68.806,360.366C68.806,372.959 79.03,383.184 91.624,383.184L137.259,383.184C149.853,383.184 160.077,372.959 160.077,360.366L160.077,314.73Z" style="fill:rgb(242,180,92);"/>
        </g>
        <g id="_21" serif:id="2" transform="matrix(1.27848,0,0,1.27848,97.1417,-131.549)">
            <path d="M160.077,314.73C160.077,302.137 149.853,291.913 137.259,291.913L91.624,291.913C79.03,291.913 68.806,302.137 68.806,314.73L68.806,360.366C68.806,372.959 79.03,383.184 91.624,383.184L137.259,383.184C149.853,383.184 160.077,372.959 160.077,360.366L160.077,314.73Z" style="fill:rgb(242,209,92);"/>
        </g>
        <g id="_11" serif:id="1" transform="matrix(1.27848,0,0,1.27848,-59.2126,-131.549)">
            <path d="M160.077,314.73C160.077,302.137 149.853,291.913 137.259,291.913L91.624,291.913C79.03,291.913 68.806,302.137 68.806,314.73L68.806,360.366C68.806,372.959 79.03,383.184 91.624,383.184L137.259,383.184C149.853,383.184 160.077,372.959 160.077,360.366L160.077,314.73Z" style="fill:rgb(242,225,92);"/>
        </g>
    </g>
</svg>
